<?xml version="1.0" encoding="UTF-8"?>
<!--
  App icon — symbol only, midnight navy base, minimal glow.
  No wordmark. Strong at 16–60px.
-->
<svg xmlns="http://www.w3.org/2000/svg" viewBox="0 0 1024 1024" role="img" aria-label="EPHERA">
  <rect width="1024" height="1024" rx="224" fill="#050B18"/>
  <!-- subtle inner wash -->
  <rect x="48" y="48" width="928" height="928" rx="196" fill="#0A1628" opacity="0.65"/>
  <g transform="translate(272,272) scale(5)">
    <path fill="#E8F1FF" d="M18 18 H78 a7 7 0 0 1 0 14 H25 a7 7 0 0 1-7-7 V25 a7 7 0 0 1 0-14 Z"/>
    <path fill="#E8F1FF" d="M18 41 H68 a7 7 0 0 1 0 14 H28 c-4 0-7-2.5-9-6 c-1.2-2-1.8-4-1-6 c1.2-3 4.5-2 6.5-2 Z"/>
    <path fill="#E8F1FF" d="M18 64 H78 a7 7 0 0 1 0 14 H25 a7 7 0 0 1-7-7 V71 a7 7 0 0 1 0-14 Z"/>
  </g>
</svg>
