<?xml version="1.0" encoding="UTF-8"?>
<!-- Horizontal lockup: symbol left + EPHERA wordmark (operational dark UI) -->
<svg xmlns="http://www.w3.org/2000/svg" viewBox="0 0 360 96" fill="none" role="img" aria-label="EPHERA">
  <title>EPHERA horizontal lockup</title>
  <!-- Symbol -->
  <g transform="translate(0,0)">
    <path fill="#F4F8FF" d="M18 18 H78 a7 7 0 0 1 0 14 H25 a7 7 0 0 1-7-7 V25 a7 7 0 0 1 0-14 Z"/>
    <path fill="#F4F8FF" d="M18 41 H68 a7 7 0 0 1 0 14 H28 c-4 0-7-2.5-9-6 c-1.2-2-1.8-4-1-6 c1.2-3 4.5-2 6.5-2 Z"/>
    <path fill="#F4F8FF" d="M18 64 H78 a7 7 0 0 1 0 14 H25 a7 7 0 0 1-7-7 V71 a7 7 0 0 1 0-14 Z"/>
  </g>
  <!-- Wordmark: custom E matches bars; tracking optimized for ≥14px -->
  <g fill="#F4F8FF" font-family="system-ui, -apple-system, 'Segoe UI', sans-serif" font-weight="300" letter-spacing="0.18em">
    <!-- Custom E (three bars, aligned to symbol optical weight) -->
    <path d="
      M108 30 h42 a3.5 3.5 0 0 1 0 7 H115 v7 h30 a3.5 3.5 0 0 1 0 7 H115 v8 h35 a3.5 3.5 0 0 1 0 7 H108 a3.5 3.5 0 0 1-3.5-3.5 V33.5 A3.5 3.5 0 0 1 108 30 Z"/>
    <text x="160" y="62" font-size="36" fill="#F4F8FF" letter-spacing="0.22em">PHERA</text>
  </g>
</svg>
